<svg xmlns="http://www.w3.org/2000/svg" version="1.1" xmlns:xlink="http://www.w3.org/1999/xlink" xmlns:svgjs="http://svgjs.com/svgjs" width="1440" height="720" preserveAspectRatio="none" viewBox="0 0 1440 720"><g mask="url(&quot;#SvgjsMask1015&quot;)" fill="none"><rect width="1440" height="720" x="0" y="0" fill="rgba(18, 18, 18, 1)"></rect><path d="M95 720L815 0L1215.5 0L495.5 720z" fill="url(#SvgjsLinearGradient1016)"></path><path d="M488.20000000000005 720L1208.2 0L1443.7 0L723.7 720z" fill="url(#SvgjsLinearGradient1016)"></path><path d="M1393 720L673 0L212.5 0L932.5 720z" fill="url(#SvgjsLinearGradient1017)"></path><path d="M963.8 720L243.79999999999995 0L-83.20000000000005 0L636.8 720z" fill="url(#SvgjsLinearGradient1017)"></path><path d="M919.2150410461547 720L1440 199.21504104615474L1440 720z" fill="url(#SvgjsLinearGradient1016)"></path><path d="M0 720L520.7849589538453 720L 0 199.21504104615474z" fill="url(#SvgjsLinearGradient1017)"></path></g><defs><mask id="SvgjsMask1015"><rect width="1440" height="720" fill="#ffffff"></rect></mask><linearGradient x1="0%" y1="100%" x2="100%" y2="0%" id="SvgjsLinearGradient1016"><stop stop-color="rgba(41, 41, 41, 0.2)" offset="0"></stop><stop stop-opacity="0" stop-color="rgba(41, 41, 41, 0.2)" offset="0.66"></stop></linearGradient><linearGradient x1="100%" y1="100%" x2="0%" y2="0%" id="SvgjsLinearGradient1017"><stop stop-color="rgba(41, 41, 41, 0.2)" offset="0"></stop><stop stop-opacity="0" stop-color="rgba(41, 41, 41, 0.2)" offset="0.66"></stop></linearGradient></defs></svg>