<svg xmlns="http://www.w3.org/2000/svg" version="1.1" xmlns:xlink="http://www.w3.org/1999/xlink" xmlns:svgjs="http://svgjs.com/svgjs" width="1440" height="720" preserveAspectRatio="none" viewBox="0 0 1440 720"><g mask="url(&quot;#SvgjsMask1176&quot;)" fill="none"><rect width="1440" height="720" x="0" y="0" fill="url(#SvgjsLinearGradient1177)"></rect><path d="M1440 0L959.29 0L1440 234.85z" fill="rgba(255, 255, 255, .1)"></path><path d="M959.29 0L1440 234.85L1440 385.62L903.13 0z" fill="rgba(255, 255, 255, .075)"></path><path d="M903.13 0L1440 385.62L1440 472.71000000000004L879.45 0z" fill="rgba(255, 255, 255, .05)"></path><path d="M879.45 0L1440 472.71000000000004L1440 587.3900000000001L849.0500000000001 0z" fill="rgba(255, 255, 255, .025)"></path><path d="M0 720L282.44 720L0 557.34z" fill="rgba(0, 0, 0, .1)"></path><path d="M0 557.34L282.44 720L574.8 720L0 374.51z" fill="rgba(0, 0, 0, .075)"></path><path d="M0 374.51L574.8 720L670.0899999999999 720L0 321.65z" fill="rgba(0, 0, 0, .05)"></path><path d="M0 321.65L670.0899999999999 720L1112.25 720L0 273.57z" fill="rgba(0, 0, 0, .025)"></path></g><defs><mask id="SvgjsMask1176"><rect width="1440" height="720" fill="#ffffff"></rect></mask><linearGradient x1="0%" y1="50%" x2="100%" y2="50%" gradientUnits="userSpaceOnUse" id="SvgjsLinearGradient1177"><stop stop-color="rgba(15, 15, 15, 1)" offset="0"></stop><stop stop-color="rgba(31, 31, 31, 1)" offset="1"></stop></linearGradient></defs></svg>