<svg xmlns="http://www.w3.org/2000/svg" version="1.1" xmlns:xlink="http://www.w3.org/1999/xlink" xmlns:svgjs="http://svgjs.com/svgjs" width="1440" height="720" preserveAspectRatio="none" viewBox="0 0 1440 720">
    <g mask="url(&quot;#SvgjsMask1000&quot;)" fill="none">
        <rect width="1440" height="720" x="0" y="0" fill="rgba(20, 20, 20, 1)"></rect>
        <path d="M0,436.163C79.394,424.427,130.453,350.734,201.868,314.113C283.845,272.076,397.298,281.097,449.898,205.462C502.957,129.167,477.926,25.141,467.015,-67.147C455.856,-161.536,454.771,-268.853,386.058,-334.521C318.067,-399.5,206.687,-370.43,117.731,-400.956C22.797,-433.533,-54.105,-539.191,-152.487,-519.324C-250.153,-499.602,-302.323,-391.668,-353.021,-305.894C-397.154,-231.227,-413.551,-147.051,-423.454,-60.883C-433.102,23.062,-441.494,108.814,-409.679,187.094C-377.12,267.204,-318.137,335.133,-244.247,380.055C-171.392,424.348,-84.347,448.631,0,436.163" fill="#101010"></path>
        <path d="M1440 1258.092C1559.898 1286.854 1700.355 1353.031 1801.578 1282.626 1903.501 1211.734 1869.5430000000001 1051.6399999999999 1907 933.2719999999999 1938.875 832.543 2027.117 742.1 2005.341 638.716 1983.6799999999998 535.877 1871.222 485.054 1796.934 410.715 1728.683 342.417 1674.648 260.072 1586.835 219.926 1490.776 176.01 1380.852 143.67200000000003 1279.761 174.27700000000004 1178.905 204.81100000000004 1115.243 299.34 1050.3319999999999 382.351 988.315 461.662 930.088 545.031 912.355 644.136 894.256 745.291 901.179 853.342 949.8679999999999 943.836 997.202 1031.81 1090.92 1078.399 1175.018 1132.32 1259.026 1186.183 1342.96 1234.813 1440 1258.092" fill="#181818"></path>
    </g>
    <defs>
        <mask id="SvgjsMask1000">
            <rect width="1440" height="720" fill="#ffffff"></rect>
        </mask>
    </defs>
</svg>