<svg xmlns="http://www.w3.org/2000/svg" version="1.1" xmlns:xlink="http://www.w3.org/1999/xlink" xmlns:svgjs="http://svgjs.com/svgjs" width="1440" height="720" preserveAspectRatio="none" viewBox="0 0 1440 720"><g mask="url(&quot;#SvgjsMask1051&quot;)" fill="none"><rect width="1440" height="720" x="0" y="0" fill="rgba(19, 19, 20, 1)"></rect><path d="M-47.91 539.3L-47.91 539.3" stroke="rgba(29, 29, 29, 1)" stroke-width="1.5"></path><path d="M-47.91 539.3L39.03 505.66" stroke="rgba(29, 29, 29, 1)" stroke-width="1.5"></path><path d="M-47.91 539.3L-52.72 675.48" stroke="rgba(29, 29, 29, 1)" stroke-width="1.5"></path><path d="M-47.91 539.3L91.88 696.73" stroke="rgba(29, 29, 29, 1)" stroke-width="1.5"></path><path d="M-47.91 539.3L50.23 796.4" stroke="rgba(29, 29, 29, 1)" stroke-width="1.5"></path><path d="M-52.72 675.48L-52.72 675.48" stroke="rgba(29, 29, 29, 1)" stroke-width="1.5"></path><path d="M-52.72 675.48L91.88 696.73" stroke="rgba(29, 29, 29, 1)" stroke-width="1.5"></path><path d="M-52.72 675.48L50.23 796.4" stroke="rgba(29, 29, 29, 1)" stroke-width="1.5"></path><path d="M-52.72 675.48L-75.72 857.49" stroke="rgba(29, 29, 29, 1)" stroke-width="1.5"></path><path d="M-75.72 857.49L-75.72 857.49" stroke="rgba(29, 29, 29, 1)" stroke-width="1.5"></path><path d="M-75.72 857.49L50.23 796.4" stroke="rgba(29, 29, 29, 1)" stroke-width="1.5"></path><path d="M-75.72 857.49L91.88 696.73" stroke="rgba(29, 29, 29, 1)" stroke-width="1.5"></path><path d="M-75.72 857.49L215.19 837.02" stroke="rgba(29, 29, 29, 1)" stroke-width="1.5"></path><path d="M-75.72 857.49L-47.91 539.3" stroke="rgba(29, 29, 29, 1)" stroke-width="1.5"></path><path d="M-75.72 857.49L39.03 505.66" stroke="rgba(29, 29, 29, 1)" stroke-width="1.5"></path><path d="M39.03 505.66L39.03 505.66" stroke="rgba(29, 29, 29, 1)" stroke-width="1.5"></path><path d="M39.03 505.66L-52.72 675.48" stroke="rgba(29, 29, 29, 1)" stroke-width="1.5"></path><path d="M39.03 505.66L91.88 696.73" stroke="rgba(29, 29, 29, 1)" stroke-width="1.5"></path><path d="M91.88 696.73L91.88 696.73" stroke="rgba(29, 29, 29, 1)" stroke-width="1.5"></path><path d="M91.88 696.73L50.23 796.4" stroke="rgba(29, 29, 29, 1)" stroke-width="1.5"></path><path d="M50.23 796.4L50.23 796.4" stroke="rgba(29, 29, 29, 1)" stroke-width="1.5"></path><path d="M254.96 490.67L254.96 490.67" stroke="rgba(29, 29, 29, 1)" stroke-width="1.5"></path><path d="M254.96 490.67L411.05 495.23" stroke="rgba(29, 29, 29, 1)" stroke-width="1.5"></path><path d="M254.96 490.67L39.03 505.66" stroke="rgba(29, 29, 29, 1)" stroke-width="1.5"></path><path d="M254.96 490.67L91.88 696.73" stroke="rgba(29, 29, 29, 1)" stroke-width="1.5"></path><path d="M254.96 490.67L528.38 551.72" stroke="rgba(29, 29, 29, 1)" stroke-width="1.5"></path><path d="M215.19 837.02L215.19 837.02" stroke="rgba(29, 29, 29, 1)" stroke-width="1.5"></path><path d="M215.19 837.02L376.6 795.89" stroke="rgba(29, 29, 29, 1)" stroke-width="1.5"></path><path d="M215.19 837.02L50.23 796.4" stroke="rgba(29, 29, 29, 1)" stroke-width="1.5"></path><path d="M215.19 837.02L91.88 696.73" stroke="rgba(29, 29, 29, 1)" stroke-width="1.5"></path><path d="M215.19 837.02L-52.72 675.48" stroke="rgba(29, 29, 29, 1)" stroke-width="1.5"></path><path d="M411.05 495.23L411.05 495.23" stroke="rgba(29, 29, 29, 1)" stroke-width="1.5"></path><path d="M411.05 495.23L528.38 551.72" stroke="rgba(29, 29, 29, 1)" stroke-width="1.5"></path><path d="M411.05 495.23L556.03 369.03" stroke="rgba(29, 29, 29, 1)" stroke-width="1.5"></path><path d="M411.05 495.23L561.04 656.41" stroke="rgba(29, 29, 29, 1)" stroke-width="1.5"></path><path d="M376.6 795.89L376.6 795.89" stroke="rgba(29, 29, 29, 1)" stroke-width="1.5"></path><path d="M376.6 795.89L551.54 835.1" stroke="rgba(29, 29, 29, 1)" stroke-width="1.5"></path><path d="M556.03 369.03L556.03 369.03" stroke="rgba(29, 29, 29, 1)" stroke-width="1.5"></path><path d="M556.03 369.03L707.59 399.97" stroke="rgba(29, 29, 29, 1)" stroke-width="1.5"></path><path d="M556.03 369.03L528.38 551.72" stroke="rgba(29, 29, 29, 1)" stroke-width="1.5"></path><path d="M556.03 369.03L704.81 521.63" stroke="rgba(29, 29, 29, 1)" stroke-width="1.5"></path><path d="M556.03 369.03L561.04 656.41" stroke="rgba(29, 29, 29, 1)" stroke-width="1.5"></path><path d="M528.38 551.72L528.38 551.72" stroke="rgba(29, 29, 29, 1)" stroke-width="1.5"></path><path d="M528.38 551.72L561.04 656.41" stroke="rgba(29, 29, 29, 1)" stroke-width="1.5"></path><path d="M528.38 551.72L704.81 521.63" stroke="rgba(29, 29, 29, 1)" stroke-width="1.5"></path><path d="M561.04 656.41L561.04 656.41" stroke="rgba(29, 29, 29, 1)" stroke-width="1.5"></path><path d="M561.04 656.41L693.04 663.63" stroke="rgba(29, 29, 29, 1)" stroke-width="1.5"></path><path d="M561.04 656.41L551.54 835.1" stroke="rgba(29, 29, 29, 1)" stroke-width="1.5"></path><path d="M561.04 656.41L704.81 521.63" stroke="rgba(29, 29, 29, 1)" stroke-width="1.5"></path><path d="M551.54 835.1L551.54 835.1" stroke="rgba(29, 29, 29, 1)" stroke-width="1.5"></path><path d="M551.54 835.1L680.28 825.7" stroke="rgba(29, 29, 29, 1)" stroke-width="1.5"></path><path d="M551.54 835.1L693.04 663.63" stroke="rgba(29, 29, 29, 1)" stroke-width="1.5"></path><path d="M707.59 399.97L707.59 399.97" stroke="rgba(29, 29, 29, 1)" stroke-width="1.5"></path><path d="M707.59 399.97L704.81 521.63" stroke="rgba(29, 29, 29, 1)" stroke-width="1.5"></path><path d="M707.59 399.97L860.05 398.3" stroke="rgba(29, 29, 29, 1)" stroke-width="1.5"></path><path d="M704.81 521.63L704.81 521.63" stroke="rgba(29, 29, 29, 1)" stroke-width="1.5"></path><path d="M704.81 521.63L693.04 663.63" stroke="rgba(29, 29, 29, 1)" stroke-width="1.5"></path><path d="M704.81 521.63L858.41 509.08" stroke="rgba(29, 29, 29, 1)" stroke-width="1.5"></path><path d="M693.04 663.63L693.04 663.63" stroke="rgba(29, 29, 29, 1)" stroke-width="1.5"></path><path d="M680.28 825.7L680.28 825.7" stroke="rgba(29, 29, 29, 1)" stroke-width="1.5"></path><path d="M680.28 825.7L836.27 833.96" stroke="rgba(29, 29, 29, 1)" stroke-width="1.5"></path><path d="M680.28 825.7L693.04 663.63" stroke="rgba(29, 29, 29, 1)" stroke-width="1.5"></path><path d="M680.28 825.7L561.04 656.41" stroke="rgba(29, 29, 29, 1)" stroke-width="1.5"></path><path d="M680.28 825.7L849.98 697.53" stroke="rgba(29, 29, 29, 1)" stroke-width="1.5"></path><path d="M680.28 825.7L954.1 711.09" stroke="rgba(29, 29, 29, 1)" stroke-width="1.5"></path><path d="M862.31 42.67L862.31 42.67" stroke="rgba(29, 29, 29, 1)" stroke-width="1.5"></path><path d="M862.31 42.67L943.28 97.3" stroke="rgba(29, 29, 29, 1)" stroke-width="1.5"></path><path d="M862.31 42.67L983.17 -76.61" stroke="rgba(29, 29, 29, 1)" stroke-width="1.5"></path><path d="M862.31 42.67L854.94 228.12" stroke="rgba(29, 29, 29, 1)" stroke-width="1.5"></path><path d="M862.31 42.67L964.84 253.77" stroke="rgba(29, 29, 29, 1)" stroke-width="1.5"></path><path d="M854.94 228.12L854.94 228.12" stroke="rgba(29, 29, 29, 1)" stroke-width="1.5"></path><path d="M854.94 228.12L964.84 253.77" stroke="rgba(29, 29, 29, 1)" stroke-width="1.5"></path><path d="M854.94 228.12L943.28 97.3" stroke="rgba(29, 29, 29, 1)" stroke-width="1.5"></path><path d="M854.94 228.12L860.05 398.3" stroke="rgba(29, 29, 29, 1)" stroke-width="1.5"></path><path d="M854.94 228.12L975.83 385.84" stroke="rgba(29, 29, 29, 1)" stroke-width="1.5"></path><path d="M860.05 398.3L860.05 398.3" stroke="rgba(29, 29, 29, 1)" stroke-width="1.5"></path><path d="M860.05 398.3L858.41 509.08" stroke="rgba(29, 29, 29, 1)" stroke-width="1.5"></path><path d="M860.05 398.3L975.83 385.84" stroke="rgba(29, 29, 29, 1)" stroke-width="1.5"></path><path d="M860.05 398.3L964.66 533.29" stroke="rgba(29, 29, 29, 1)" stroke-width="1.5"></path><path d="M860.05 398.3L964.84 253.77" stroke="rgba(29, 29, 29, 1)" stroke-width="1.5"></path><path d="M858.41 509.08L858.41 509.08" stroke="rgba(29, 29, 29, 1)" stroke-width="1.5"></path><path d="M858.41 509.08L964.66 533.29" stroke="rgba(29, 29, 29, 1)" stroke-width="1.5"></path><path d="M858.41 509.08L975.83 385.84" stroke="rgba(29, 29, 29, 1)" stroke-width="1.5"></path><path d="M858.41 509.08L707.59 399.97" stroke="rgba(29, 29, 29, 1)" stroke-width="1.5"></path><path d="M858.41 509.08L849.98 697.53" stroke="rgba(29, 29, 29, 1)" stroke-width="1.5"></path><path d="M849.98 697.53L849.98 697.53" stroke="rgba(29, 29, 29, 1)" stroke-width="1.5"></path><path d="M849.98 697.53L954.1 711.09" stroke="rgba(29, 29, 29, 1)" stroke-width="1.5"></path><path d="M836.27 833.96L836.27 833.96" stroke="rgba(29, 29, 29, 1)" stroke-width="1.5"></path><path d="M836.27 833.96L849.98 697.53" stroke="rgba(29, 29, 29, 1)" stroke-width="1.5"></path><path d="M836.27 833.96L1006.18 831.73" stroke="rgba(29, 29, 29, 1)" stroke-width="1.5"></path><path d="M836.27 833.96L954.1 711.09" stroke="rgba(29, 29, 29, 1)" stroke-width="1.5"></path><path d="M836.27 833.96L693.04 663.63" stroke="rgba(29, 29, 29, 1)" stroke-width="1.5"></path><path d="M983.17 -76.61L983.17 -76.61" stroke="rgba(29, 29, 29, 1)" stroke-width="1.5"></path><path d="M983.17 -76.61L1118.25 -110.35" stroke="rgba(29, 29, 29, 1)" stroke-width="1.5"></path><path d="M983.17 -76.61L943.28 97.3" stroke="rgba(29, 29, 29, 1)" stroke-width="1.5"></path><path d="M983.17 -76.61L1139.75 82.66" stroke="rgba(29, 29, 29, 1)" stroke-width="1.5"></path><path d="M943.28 97.3L943.28 97.3" stroke="rgba(29, 29, 29, 1)" stroke-width="1.5"></path><path d="M943.28 97.3L964.84 253.77" stroke="rgba(29, 29, 29, 1)" stroke-width="1.5"></path><path d="M964.84 253.77L964.84 253.77" stroke="rgba(29, 29, 29, 1)" stroke-width="1.5"></path><path d="M964.84 253.77L975.83 385.84" stroke="rgba(29, 29, 29, 1)" stroke-width="1.5"></path><path d="M964.84 253.77L1143.81 236.66" stroke="rgba(29, 29, 29, 1)" stroke-width="1.5"></path><path d="M975.83 385.84L975.83 385.84" stroke="rgba(29, 29, 29, 1)" stroke-width="1.5"></path><path d="M975.83 385.84L964.66 533.29" stroke="rgba(29, 29, 29, 1)" stroke-width="1.5"></path><path d="M964.66 533.29L964.66 533.29" stroke="rgba(29, 29, 29, 1)" stroke-width="1.5"></path><path d="M964.66 533.29L1103.13 542.93" stroke="rgba(29, 29, 29, 1)" stroke-width="1.5"></path><path d="M964.66 533.29L954.1 711.09" stroke="rgba(29, 29, 29, 1)" stroke-width="1.5"></path><path d="M964.66 533.29L1108.32 656.8" stroke="rgba(29, 29, 29, 1)" stroke-width="1.5"></path><path d="M954.1 711.09L954.1 711.09" stroke="rgba(29, 29, 29, 1)" stroke-width="1.5"></path><path d="M954.1 711.09L1006.18 831.73" stroke="rgba(29, 29, 29, 1)" stroke-width="1.5"></path><path d="M954.1 711.09L1108.32 656.8" stroke="rgba(29, 29, 29, 1)" stroke-width="1.5"></path><path d="M1006.18 831.73L1006.18 831.73" stroke="rgba(29, 29, 29, 1)" stroke-width="1.5"></path><path d="M1006.18 831.73L1108.32 656.8" stroke="rgba(29, 29, 29, 1)" stroke-width="1.5"></path><path d="M1006.18 831.73L849.98 697.53" stroke="rgba(29, 29, 29, 1)" stroke-width="1.5"></path><path d="M1006.18 831.73L1248.55 836.85" stroke="rgba(29, 29, 29, 1)" stroke-width="1.5"></path><path d="M1118.25 -110.35L1118.25 -110.35" stroke="rgba(29, 29, 29, 1)" stroke-width="1.5"></path><path d="M1118.25 -110.35L1263.99 -95.81" stroke="rgba(29, 29, 29, 1)" stroke-width="1.5"></path><path d="M1118.25 -110.35L1139.75 82.66" stroke="rgba(29, 29, 29, 1)" stroke-width="1.5"></path><path d="M1118.25 -110.35L1272.3 58.82" stroke="rgba(29, 29, 29, 1)" stroke-width="1.5"></path><path d="M1118.25 -110.35L943.28 97.3" stroke="rgba(29, 29, 29, 1)" stroke-width="1.5"></path><path d="M1139.75 82.66L1139.75 82.66" stroke="rgba(29, 29, 29, 1)" stroke-width="1.5"></path><path d="M1139.75 82.66L1272.3 58.82" stroke="rgba(29, 29, 29, 1)" stroke-width="1.5"></path><path d="M1139.75 82.66L1143.81 236.66" stroke="rgba(29, 29, 29, 1)" stroke-width="1.5"></path><path d="M1139.75 82.66L1257.94 225.04" stroke="rgba(29, 29, 29, 1)" stroke-width="1.5"></path><path d="M1143.81 236.66L1143.81 236.66" stroke="rgba(29, 29, 29, 1)" stroke-width="1.5"></path><path d="M1143.81 236.66L1257.94 225.04" stroke="rgba(29, 29, 29, 1)" stroke-width="1.5"></path><path d="M1143.81 236.66L1256.65 400.66" stroke="rgba(29, 29, 29, 1)" stroke-width="1.5"></path><path d="M1143.81 236.66L1272.3 58.82" stroke="rgba(29, 29, 29, 1)" stroke-width="1.5"></path><path d="M1143.81 236.66L975.83 385.84" stroke="rgba(29, 29, 29, 1)" stroke-width="1.5"></path><path d="M1103.13 542.93L1103.13 542.93" stroke="rgba(29, 29, 29, 1)" stroke-width="1.5"></path><path d="M1103.13 542.93L1108.32 656.8" stroke="rgba(29, 29, 29, 1)" stroke-width="1.5"></path><path d="M1103.13 542.93L975.83 385.84" stroke="rgba(29, 29, 29, 1)" stroke-width="1.5"></path><path d="M1103.13 542.93L1256.65 400.66" stroke="rgba(29, 29, 29, 1)" stroke-width="1.5"></path><path d="M1103.13 542.93L1271.99 683.77" stroke="rgba(29, 29, 29, 1)" stroke-width="1.5"></path><path d="M1108.32 656.8L1108.32 656.8" stroke="rgba(29, 29, 29, 1)" stroke-width="1.5"></path><path d="M1263.99 -95.81L1263.99 -95.81" stroke="rgba(29, 29, 29, 1)" stroke-width="1.5"></path><path d="M1263.99 -95.81L1272.3 58.82" stroke="rgba(29, 29, 29, 1)" stroke-width="1.5"></path><path d="M1272.3 58.82L1272.3 58.82" stroke="rgba(29, 29, 29, 1)" stroke-width="1.5"></path><path d="M1272.3 58.82L1257.94 225.04" stroke="rgba(29, 29, 29, 1)" stroke-width="1.5"></path><path d="M1257.94 225.04L1257.94 225.04" stroke="rgba(29, 29, 29, 1)" stroke-width="1.5"></path><path d="M1257.94 225.04L1256.65 400.66" stroke="rgba(29, 29, 29, 1)" stroke-width="1.5"></path><path d="M1257.94 225.04L1437.84 239.87" stroke="rgba(29, 29, 29, 1)" stroke-width="1.5"></path><path d="M1256.65 400.66L1256.65 400.66" stroke="rgba(29, 29, 29, 1)" stroke-width="1.5"></path><path d="M1256.65 400.66L1436.76 352.62" stroke="rgba(29, 29, 29, 1)" stroke-width="1.5"></path><path d="M1271.99 683.77L1271.99 683.77" stroke="rgba(29, 29, 29, 1)" stroke-width="1.5"></path><path d="M1271.99 683.77L1410.12 678.86" stroke="rgba(29, 29, 29, 1)" stroke-width="1.5"></path><path d="M1271.99 683.77L1248.55 836.85" stroke="rgba(29, 29, 29, 1)" stroke-width="1.5"></path><path d="M1271.99 683.77L1108.32 656.8" stroke="rgba(29, 29, 29, 1)" stroke-width="1.5"></path><path d="M1271.99 683.77L1420.17 839.93" stroke="rgba(29, 29, 29, 1)" stroke-width="1.5"></path><path d="M1271.99 683.77L1451.33 501.46" stroke="rgba(29, 29, 29, 1)" stroke-width="1.5"></path><path d="M1248.55 836.85L1248.55 836.85" stroke="rgba(29, 29, 29, 1)" stroke-width="1.5"></path><path d="M1248.55 836.85L1420.17 839.93" stroke="rgba(29, 29, 29, 1)" stroke-width="1.5"></path><path d="M1430.16 -95.17L1430.16 -95.17" stroke="rgba(29, 29, 29, 1)" stroke-width="1.5"></path><path d="M1430.16 -95.17L1445.94 44.1" stroke="rgba(29, 29, 29, 1)" stroke-width="1.5"></path><path d="M1430.16 -95.17L1588.35 -67.99" stroke="rgba(29, 29, 29, 1)" stroke-width="1.5"></path><path d="M1430.16 -95.17L1263.99 -95.81" stroke="rgba(29, 29, 29, 1)" stroke-width="1.5"></path><path d="M1430.16 -95.17L1598.97 43.12" stroke="rgba(29, 29, 29, 1)" stroke-width="1.5"></path><path d="M1430.16 -95.17L1272.3 58.82" stroke="rgba(29, 29, 29, 1)" stroke-width="1.5"></path><path d="M1445.94 44.1L1445.94 44.1" stroke="rgba(29, 29, 29, 1)" stroke-width="1.5"></path><path d="M1445.94 44.1L1598.97 43.12" stroke="rgba(29, 29, 29, 1)" stroke-width="1.5"></path><path d="M1445.94 44.1L1272.3 58.82" stroke="rgba(29, 29, 29, 1)" stroke-width="1.5"></path><path d="M1445.94 44.1L1588.35 -67.99" stroke="rgba(29, 29, 29, 1)" stroke-width="1.5"></path><path d="M1437.84 239.87L1437.84 239.87" stroke="rgba(29, 29, 29, 1)" stroke-width="1.5"></path><path d="M1437.84 239.87L1436.76 352.62" stroke="rgba(29, 29, 29, 1)" stroke-width="1.5"></path><path d="M1437.84 239.87L1553.67 214.92" stroke="rgba(29, 29, 29, 1)" stroke-width="1.5"></path><path d="M1437.84 239.87L1553.78 358.81" stroke="rgba(29, 29, 29, 1)" stroke-width="1.5"></path><path d="M1436.76 352.62L1436.76 352.62" stroke="rgba(29, 29, 29, 1)" stroke-width="1.5"></path><path d="M1436.76 352.62L1553.78 358.81" stroke="rgba(29, 29, 29, 1)" stroke-width="1.5"></path><path d="M1436.76 352.62L1451.33 501.46" stroke="rgba(29, 29, 29, 1)" stroke-width="1.5"></path><path d="M1436.76 352.62L1553.67 214.92" stroke="rgba(29, 29, 29, 1)" stroke-width="1.5"></path><path d="M1436.76 352.62L1257.94 225.04" stroke="rgba(29, 29, 29, 1)" stroke-width="1.5"></path><path d="M1451.33 501.46L1451.33 501.46" stroke="rgba(29, 29, 29, 1)" stroke-width="1.5"></path><path d="M1451.33 501.46L1572.67 541.79" stroke="rgba(29, 29, 29, 1)" stroke-width="1.5"></path><path d="M1410.12 678.86L1410.12 678.86" stroke="rgba(29, 29, 29, 1)" stroke-width="1.5"></path><path d="M1410.12 678.86L1556.96 672" stroke="rgba(29, 29, 29, 1)" stroke-width="1.5"></path><path d="M1410.12 678.86L1420.17 839.93" stroke="rgba(29, 29, 29, 1)" stroke-width="1.5"></path><path d="M1410.12 678.86L1451.33 501.46" stroke="rgba(29, 29, 29, 1)" stroke-width="1.5"></path><path d="M1410.12 678.86L1572.67 541.79" stroke="rgba(29, 29, 29, 1)" stroke-width="1.5"></path><path d="M1410.12 678.86L1591.54 798.7" stroke="rgba(29, 29, 29, 1)" stroke-width="1.5"></path><path d="M1420.17 839.93L1420.17 839.93" stroke="rgba(29, 29, 29, 1)" stroke-width="1.5"></path><path d="M1420.17 839.93L1591.54 798.7" stroke="rgba(29, 29, 29, 1)" stroke-width="1.5"></path><path d="M1420.17 839.93L1556.96 672" stroke="rgba(29, 29, 29, 1)" stroke-width="1.5"></path><path d="M1420.17 839.93L1572.67 541.79" stroke="rgba(29, 29, 29, 1)" stroke-width="1.5"></path><path d="M1588.35 -67.99L1588.35 -67.99" stroke="rgba(29, 29, 29, 1)" stroke-width="1.5"></path><path d="M1588.35 -67.99L1598.97 43.12" stroke="rgba(29, 29, 29, 1)" stroke-width="1.5"></path><path d="M1588.35 -67.99L1553.67 214.92" stroke="rgba(29, 29, 29, 1)" stroke-width="1.5"></path><path d="M1588.35 -67.99L1263.99 -95.81" stroke="rgba(29, 29, 29, 1)" stroke-width="1.5"></path><path d="M1598.97 43.12L1598.97 43.12" stroke="rgba(29, 29, 29, 1)" stroke-width="1.5"></path><path d="M1553.67 214.92L1553.67 214.92" stroke="rgba(29, 29, 29, 1)" stroke-width="1.5"></path><path d="M1553.67 214.92L1553.78 358.81" stroke="rgba(29, 29, 29, 1)" stroke-width="1.5"></path><path d="M1553.78 358.81L1553.78 358.81" stroke="rgba(29, 29, 29, 1)" stroke-width="1.5"></path><path d="M1553.78 358.81L1451.33 501.46" stroke="rgba(29, 29, 29, 1)" stroke-width="1.5"></path><path d="M1553.78 358.81L1572.67 541.79" stroke="rgba(29, 29, 29, 1)" stroke-width="1.5"></path><path d="M1572.67 541.79L1572.67 541.79" stroke="rgba(29, 29, 29, 1)" stroke-width="1.5"></path><path d="M1572.67 541.79L1556.96 672" stroke="rgba(29, 29, 29, 1)" stroke-width="1.5"></path><path d="M1572.67 541.79L1436.76 352.62" stroke="rgba(29, 29, 29, 1)" stroke-width="1.5"></path><path d="M1556.96 672L1556.96 672" stroke="rgba(29, 29, 29, 1)" stroke-width="1.5"></path><path d="M1556.96 672L1591.54 798.7" stroke="rgba(29, 29, 29, 1)" stroke-width="1.5"></path><path d="M1556.96 672L1451.33 501.46" stroke="rgba(29, 29, 29, 1)" stroke-width="1.5"></path><path d="M1556.96 672L1271.99 683.77" stroke="rgba(29, 29, 29, 1)" stroke-width="1.5"></path><path d="M1591.54 798.7L1591.54 798.7" stroke="rgba(29, 29, 29, 1)" stroke-width="1.5"></path><circle r="5" cx="-47.91" cy="539.3" fill="rgba(29, 29, 29, 1)"></circle><circle r="5" cx="-52.72" cy="675.48" fill="rgba(29, 29, 29, 1)"></circle><circle r="5" cx="-75.72" cy="857.49" fill="rgba(29, 29, 29, 1)"></circle><circle r="5" cx="39.03" cy="505.66" fill="rgba(29, 29, 29, 1)"></circle><circle r="5" cx="91.88" cy="696.73" fill="rgba(29, 29, 29, 1)"></circle><circle r="5" cx="50.23" cy="796.4" fill="rgba(29, 29, 29, 1)"></circle><circle r="5" cx="254.96" cy="490.67" fill="rgba(29, 29, 29, 1)"></circle><circle r="5" cx="215.19" cy="837.02" fill="rgba(29, 29, 29, 1)"></circle><circle r="5" cx="411.05" cy="495.23" fill="rgba(29, 29, 29, 1)"></circle><circle r="5" cx="376.6" cy="795.89" fill="rgba(29, 29, 29, 1)"></circle><circle r="5" cx="556.03" cy="369.03" fill="rgba(29, 29, 29, 1)"></circle><circle r="5" cx="528.38" cy="551.72" fill="rgba(29, 29, 29, 1)"></circle><circle r="5" cx="561.04" cy="656.41" fill="rgba(29, 29, 29, 1)"></circle><circle r="5" cx="551.54" cy="835.1" fill="rgba(29, 29, 29, 1)"></circle><circle r="5" cx="707.59" cy="399.97" fill="rgba(29, 29, 29, 1)"></circle><circle r="5" cx="704.81" cy="521.63" fill="rgba(29, 29, 29, 1)"></circle><circle r="5" cx="693.04" cy="663.63" fill="rgba(29, 29, 29, 1)"></circle><circle r="5" cx="680.28" cy="825.7" fill="rgba(29, 29, 29, 1)"></circle><circle r="5" cx="862.31" cy="42.67" fill="rgba(29, 29, 29, 1)"></circle><circle r="5" cx="854.94" cy="228.12" fill="rgba(29, 29, 29, 1)"></circle><circle r="5" cx="860.05" cy="398.3" fill="rgba(29, 29, 29, 1)"></circle><circle r="5" cx="858.41" cy="509.08" fill="rgba(29, 29, 29, 1)"></circle><circle r="5" cx="849.98" cy="697.53" fill="rgba(29, 29, 29, 1)"></circle><circle r="5" cx="836.27" cy="833.96" fill="rgba(29, 29, 29, 1)"></circle><circle r="5" cx="983.17" cy="-76.61" fill="rgba(29, 29, 29, 1)"></circle><circle r="5" cx="943.28" cy="97.3" fill="rgba(29, 29, 29, 1)"></circle><circle r="5" cx="964.84" cy="253.77" fill="rgba(29, 29, 29, 1)"></circle><circle r="5" cx="975.83" cy="385.84" fill="rgba(29, 29, 29, 1)"></circle><circle r="5" cx="964.66" cy="533.29" fill="rgba(29, 29, 29, 1)"></circle><circle r="5" cx="954.1" cy="711.09" fill="rgba(29, 29, 29, 1)"></circle><circle r="5" cx="1006.18" cy="831.73" fill="rgba(29, 29, 29, 1)"></circle><circle r="5" cx="1118.25" cy="-110.35" fill="rgba(29, 29, 29, 1)"></circle><circle r="5" cx="1139.75" cy="82.66" fill="rgba(29, 29, 29, 1)"></circle><circle r="5" cx="1143.81" cy="236.66" fill="rgba(29, 29, 29, 1)"></circle><circle r="5" cx="1103.13" cy="542.93" fill="rgba(29, 29, 29, 1)"></circle><circle r="5" cx="1108.32" cy="656.8" fill="rgba(29, 29, 29, 1)"></circle><circle r="5" cx="1263.99" cy="-95.81" fill="rgba(29, 29, 29, 1)"></circle><circle r="5" cx="1272.3" cy="58.82" fill="rgba(29, 29, 29, 1)"></circle><circle r="5" cx="1257.94" cy="225.04" fill="rgba(29, 29, 29, 1)"></circle><circle r="5" cx="1256.65" cy="400.66" fill="rgba(29, 29, 29, 1)"></circle><circle r="5" cx="1271.99" cy="683.77" fill="rgba(29, 29, 29, 1)"></circle><circle r="5" cx="1248.55" cy="836.85" fill="rgba(29, 29, 29, 1)"></circle><circle r="5" cx="1430.16" cy="-95.17" fill="rgba(29, 29, 29, 1)"></circle><circle r="5" cx="1445.94" cy="44.1" fill="rgba(29, 29, 29, 1)"></circle><circle r="5" cx="1437.84" cy="239.87" fill="rgba(29, 29, 29, 1)"></circle><circle r="5" cx="1436.76" cy="352.62" fill="rgba(29, 29, 29, 1)"></circle><circle r="5" cx="1451.33" cy="501.46" fill="rgba(29, 29, 29, 1)"></circle><circle r="5" cx="1410.12" cy="678.86" fill="rgba(29, 29, 29, 1)"></circle><circle r="5" cx="1420.17" cy="839.93" fill="rgba(29, 29, 29, 1)"></circle><circle r="5" cx="1588.35" cy="-67.99" fill="rgba(29, 29, 29, 1)"></circle><circle r="5" cx="1598.97" cy="43.12" fill="rgba(29, 29, 29, 1)"></circle><circle r="5" cx="1553.67" cy="214.92" fill="rgba(29, 29, 29, 1)"></circle><circle r="5" cx="1553.78" cy="358.81" fill="rgba(29, 29, 29, 1)"></circle><circle r="5" cx="1572.67" cy="541.79" fill="rgba(29, 29, 29, 1)"></circle><circle r="5" cx="1556.96" cy="672" fill="rgba(29, 29, 29, 1)"></circle><circle r="5" cx="1591.54" cy="798.7" fill="rgba(29, 29, 29, 1)"></circle><path d="M-100.14 847.56L-100.14 847.56" stroke="hsl(0, 0%, 17.8%)" stroke-width="1.5"></path><path d="M-100.14 847.56L-51.32 701.56" stroke="hsl(0, 0%, 17.8%)" stroke-width="1.5"></path><path d="M-100.14 847.56L71.32 838.88" stroke="hsl(0, 0%, 17.8%)" stroke-width="1.5"></path><path d="M371.99 712.37L371.99 712.37" stroke="hsl(0, 0%, 17.8%)" stroke-width="1.5"></path><path d="M371.99 712.37L363.59 841.08" stroke="hsl(0, 0%, 17.8%)" stroke-width="1.5"></path><path d="M371.99 712.37L548.21 649.8" stroke="hsl(0, 0%, 17.8%)" stroke-width="1.5"></path><path d="M371.99 712.37L550.29 791.3" stroke="hsl(0, 0%, 17.8%)" stroke-width="1.5"></path><path d="M371.99 712.37L198.94 805.4" stroke="hsl(0, 0%, 17.8%)" stroke-width="1.5"></path><path d="M371.99 712.37L536.14 524.71" stroke="hsl(0, 0%, 17.8%)" stroke-width="1.5"></path><path d="M536.14 524.71L536.14 524.71" stroke="hsl(0, 0%, 17.8%)" stroke-width="1.5"></path><path d="M536.14 524.71L548.21 649.8" stroke="hsl(0, 0%, 17.8%)" stroke-width="1.5"></path><path d="M536.14 524.71L693.72 556.51" stroke="hsl(0, 0%, 17.8%)" stroke-width="1.5"></path><path d="M536.14 524.71L653.38 682.62" stroke="hsl(0, 0%, 17.8%)" stroke-width="1.5"></path><path d="M536.14 524.71L550.29 791.3" stroke="hsl(0, 0%, 17.8%)" stroke-width="1.5"></path><path d="M548.21 649.8L548.21 649.8" stroke="hsl(0, 0%, 17.8%)" stroke-width="1.5"></path><path d="M548.21 649.8L653.38 682.62" stroke="hsl(0, 0%, 17.8%)" stroke-width="1.5"></path><path d="M548.21 649.8L550.29 791.3" stroke="hsl(0, 0%, 17.8%)" stroke-width="1.5"></path><path d="M548.21 649.8L693.72 556.51" stroke="hsl(0, 0%, 17.8%)" stroke-width="1.5"></path><path d="M548.21 649.8L685.09 829.16" stroke="hsl(0, 0%, 17.8%)" stroke-width="1.5"></path><path d="M1253.73 66.43L1253.73 66.43" stroke="hsl(0, 0%, 17.8%)" stroke-width="1.5"></path><path d="M1253.73 66.43L1243.45 194.47" stroke="hsl(0, 0%, 17.8%)" stroke-width="1.5"></path><path d="M1253.73 66.43L1249.82 -64.27" stroke="hsl(0, 0%, 17.8%)" stroke-width="1.5"></path><path d="M1253.73 66.43L1434.43 38.8" stroke="hsl(0, 0%, 17.8%)" stroke-width="1.5"></path><path d="M1281.5 391.18L1281.5 391.18" stroke="hsl(0, 0%, 17.8%)" stroke-width="1.5"></path><path d="M1281.5 391.18L1391.81 355.55" stroke="hsl(0, 0%, 17.8%)" stroke-width="1.5"></path><path d="M1281.5 391.18L1118.12 399.74" stroke="hsl(0, 0%, 17.8%)" stroke-width="1.5"></path><path d="M1281.5 391.18L1253.02 561.54" stroke="hsl(0, 0%, 17.8%)" stroke-width="1.5"></path><path d="M1281.5 391.18L1411.52 507.57" stroke="hsl(0, 0%, 17.8%)" stroke-width="1.5"></path><path d="M1281.5 391.18L1243.45 194.47" stroke="hsl(0, 0%, 17.8%)" stroke-width="1.5"></path><path d="M1281.5 391.18L1127.98 247.3" stroke="hsl(0, 0%, 17.8%)" stroke-width="1.5"></path><path d="M1430.82 191.72L1430.82 191.72" stroke="hsl(0, 0%, 17.8%)" stroke-width="1.5"></path><path d="M1430.82 191.72L1573.79 228.05" stroke="hsl(0, 0%, 17.8%)" stroke-width="1.5"></path><path d="M1430.82 191.72L1434.43 38.8" stroke="hsl(0, 0%, 17.8%)" stroke-width="1.5"></path><path d="M1430.82 191.72L1391.81 355.55" stroke="hsl(0, 0%, 17.8%)" stroke-width="1.5"></path><path d="M1430.82 191.72L1243.45 194.47" stroke="hsl(0, 0%, 17.8%)" stroke-width="1.5"></path><path d="M1430.82 191.72L1599.07 108.53" stroke="hsl(0, 0%, 17.8%)" stroke-width="1.5"></path><path d="M1433.32 845.33L1433.32 845.33" stroke="hsl(0, 0%, 17.8%)" stroke-width="1.5"></path><path d="M1433.32 845.33L1281.92 832.99" stroke="hsl(0, 0%, 17.8%)" stroke-width="1.5"></path><path d="M1433.32 845.33L1428.33 669.82" stroke="hsl(0, 0%, 17.8%)" stroke-width="1.5"></path><path d="M1433.32 845.33L1311.41 671.95" stroke="hsl(0, 0%, 17.8%)" stroke-width="1.5"></path><path d="M1433.32 845.33L1561.27 652.04" stroke="hsl(0, 0%, 17.8%)" stroke-width="1.5"></path><path d="M-51.32 701.56L-51.32 701.56" stroke="hsl(0, 0%, 17.8%)" stroke-width="1.5"></path><path d="M-51.32 701.56L44.35 704.06" stroke="hsl(0, 0%, 17.8%)" stroke-width="1.5"></path><path d="M44.35 704.06L44.35 704.06" stroke="hsl(0, 0%, 17.8%)" stroke-width="1.5"></path><path d="M44.35 704.06L71.32 838.88" stroke="hsl(0, 0%, 17.8%)" stroke-width="1.5"></path><path d="M44.35 704.06L198.94 805.4" stroke="hsl(0, 0%, 17.8%)" stroke-width="1.5"></path><path d="M44.35 704.06L-100.14 847.56" stroke="hsl(0, 0%, 17.8%)" stroke-width="1.5"></path><path d="M44.35 704.06L371.99 712.37" stroke="hsl(0, 0%, 17.8%)" stroke-width="1.5"></path><path d="M44.35 704.06L363.59 841.08" stroke="hsl(0, 0%, 17.8%)" stroke-width="1.5"></path><path d="M71.32 838.88L71.32 838.88" stroke="hsl(0, 0%, 17.8%)" stroke-width="1.5"></path><path d="M71.32 838.88L198.94 805.4" stroke="hsl(0, 0%, 17.8%)" stroke-width="1.5"></path><path d="M71.32 838.88L-51.32 701.56" stroke="hsl(0, 0%, 17.8%)" stroke-width="1.5"></path><path d="M71.32 838.88L363.59 841.08" stroke="hsl(0, 0%, 17.8%)" stroke-width="1.5"></path><path d="M71.32 838.88L371.99 712.37" stroke="hsl(0, 0%, 17.8%)" stroke-width="1.5"></path><path d="M198.94 805.4L198.94 805.4" stroke="hsl(0, 0%, 17.8%)" stroke-width="1.5"></path><path d="M198.94 805.4L363.59 841.08" stroke="hsl(0, 0%, 17.8%)" stroke-width="1.5"></path><path d="M363.59 841.08L363.59 841.08" stroke="hsl(0, 0%, 17.8%)" stroke-width="1.5"></path><path d="M363.59 841.08L550.29 791.3" stroke="hsl(0, 0%, 17.8%)" stroke-width="1.5"></path><path d="M363.59 841.08L548.21 649.8" stroke="hsl(0, 0%, 17.8%)" stroke-width="1.5"></path><path d="M363.59 841.08L685.09 829.16" stroke="hsl(0, 0%, 17.8%)" stroke-width="1.5"></path><path d="M550.29 791.3L550.29 791.3" stroke="hsl(0, 0%, 17.8%)" stroke-width="1.5"></path><path d="M550.29 791.3L685.09 829.16" stroke="hsl(0, 0%, 17.8%)" stroke-width="1.5"></path><path d="M550.29 791.3L653.38 682.62" stroke="hsl(0, 0%, 17.8%)" stroke-width="1.5"></path><path d="M693.72 556.51L693.72 556.51" stroke="hsl(0, 0%, 17.8%)" stroke-width="1.5"></path><path d="M693.72 556.51L815.96 507.36" stroke="hsl(0, 0%, 17.8%)" stroke-width="1.5"></path><path d="M693.72 556.51L653.38 682.62" stroke="hsl(0, 0%, 17.8%)" stroke-width="1.5"></path><path d="M653.38 682.62L653.38 682.62" stroke="hsl(0, 0%, 17.8%)" stroke-width="1.5"></path><path d="M685.09 829.16L685.09 829.16" stroke="hsl(0, 0%, 17.8%)" stroke-width="1.5"></path><path d="M685.09 829.16L653.38 682.62" stroke="hsl(0, 0%, 17.8%)" stroke-width="1.5"></path><path d="M815.96 507.36L815.96 507.36" stroke="hsl(0, 0%, 17.8%)" stroke-width="1.5"></path><path d="M815.96 507.36L861.31 640.58" stroke="hsl(0, 0%, 17.8%)" stroke-width="1.5"></path><path d="M815.96 507.36L953.51 561.02" stroke="hsl(0, 0%, 17.8%)" stroke-width="1.5"></path><path d="M815.96 507.36L970.31 647.24" stroke="hsl(0, 0%, 17.8%)" stroke-width="1.5"></path><path d="M861.31 640.58L861.31 640.58" stroke="hsl(0, 0%, 17.8%)" stroke-width="1.5"></path><path d="M861.31 640.58L970.31 647.24" stroke="hsl(0, 0%, 17.8%)" stroke-width="1.5"></path><path d="M861.31 640.58L953.51 561.02" stroke="hsl(0, 0%, 17.8%)" stroke-width="1.5"></path><path d="M861.31 640.58L952.45 799.71" stroke="hsl(0, 0%, 17.8%)" stroke-width="1.5"></path><path d="M861.31 640.58L693.72 556.51" stroke="hsl(0, 0%, 17.8%)" stroke-width="1.5"></path><path d="M836.74 828.04L836.74 828.04" stroke="hsl(0, 0%, 17.8%)" stroke-width="1.5"></path><path d="M836.74 828.04L952.45 799.71" stroke="hsl(0, 0%, 17.8%)" stroke-width="1.5"></path><path d="M836.74 828.04L685.09 829.16" stroke="hsl(0, 0%, 17.8%)" stroke-width="1.5"></path><path d="M836.74 828.04L861.31 640.58" stroke="hsl(0, 0%, 17.8%)" stroke-width="1.5"></path><path d="M836.74 828.04L970.31 647.24" stroke="hsl(0, 0%, 17.8%)" stroke-width="1.5"></path><path d="M836.74 828.04L653.38 682.62" stroke="hsl(0, 0%, 17.8%)" stroke-width="1.5"></path><path d="M836.74 828.04L1092.7 796.64" stroke="hsl(0, 0%, 17.8%)" stroke-width="1.5"></path><path d="M994.45 357.99L994.45 357.99" stroke="hsl(0, 0%, 17.8%)" stroke-width="1.5"></path><path d="M994.45 357.99L1118.12 399.74" stroke="hsl(0, 0%, 17.8%)" stroke-width="1.5"></path><path d="M994.45 357.99L1127.98 247.3" stroke="hsl(0, 0%, 17.8%)" stroke-width="1.5"></path><path d="M994.45 357.99L953.51 561.02" stroke="hsl(0, 0%, 17.8%)" stroke-width="1.5"></path><path d="M994.45 357.99L815.96 507.36" stroke="hsl(0, 0%, 17.8%)" stroke-width="1.5"></path><path d="M994.45 357.99L1124.36 556.03" stroke="hsl(0, 0%, 17.8%)" stroke-width="1.5"></path><path d="M953.51 561.02L953.51 561.02" stroke="hsl(0, 0%, 17.8%)" stroke-width="1.5"></path><path d="M953.51 561.02L970.31 647.24" stroke="hsl(0, 0%, 17.8%)" stroke-width="1.5"></path><path d="M970.31 647.24L970.31 647.24" stroke="hsl(0, 0%, 17.8%)" stroke-width="1.5"></path><path d="M970.31 647.24L952.45 799.71" stroke="hsl(0, 0%, 17.8%)" stroke-width="1.5"></path><path d="M970.31 647.24L1144.77 672.65" stroke="hsl(0, 0%, 17.8%)" stroke-width="1.5"></path><path d="M952.45 799.71L952.45 799.71" stroke="hsl(0, 0%, 17.8%)" stroke-width="1.5"></path><path d="M952.45 799.71L1092.7 796.64" stroke="hsl(0, 0%, 17.8%)" stroke-width="1.5"></path><path d="M1127.98 247.3L1127.98 247.3" stroke="hsl(0, 0%, 17.8%)" stroke-width="1.5"></path><path d="M1127.98 247.3L1243.45 194.47" stroke="hsl(0, 0%, 17.8%)" stroke-width="1.5"></path><path d="M1127.98 247.3L1118.12 399.74" stroke="hsl(0, 0%, 17.8%)" stroke-width="1.5"></path><path d="M1118.12 399.74L1118.12 399.74" stroke="hsl(0, 0%, 17.8%)" stroke-width="1.5"></path><path d="M1118.12 399.74L1124.36 556.03" stroke="hsl(0, 0%, 17.8%)" stroke-width="1.5"></path><path d="M1118.12 399.74L1253.02 561.54" stroke="hsl(0, 0%, 17.8%)" stroke-width="1.5"></path><path d="M1118.12 399.74L953.51 561.02" stroke="hsl(0, 0%, 17.8%)" stroke-width="1.5"></path><path d="M1124.36 556.03L1124.36 556.03" stroke="hsl(0, 0%, 17.8%)" stroke-width="1.5"></path><path d="M1124.36 556.03L1144.77 672.65" stroke="hsl(0, 0%, 17.8%)" stroke-width="1.5"></path><path d="M1124.36 556.03L1253.02 561.54" stroke="hsl(0, 0%, 17.8%)" stroke-width="1.5"></path><path d="M1124.36 556.03L953.51 561.02" stroke="hsl(0, 0%, 17.8%)" stroke-width="1.5"></path><path d="M1124.36 556.03L970.31 647.24" stroke="hsl(0, 0%, 17.8%)" stroke-width="1.5"></path><path d="M1144.77 672.65L1144.77 672.65" stroke="hsl(0, 0%, 17.8%)" stroke-width="1.5"></path><path d="M1144.77 672.65L1092.7 796.64" stroke="hsl(0, 0%, 17.8%)" stroke-width="1.5"></path><path d="M1144.77 672.65L1253.02 561.54" stroke="hsl(0, 0%, 17.8%)" stroke-width="1.5"></path><path d="M1092.7 796.64L1092.7 796.64" stroke="hsl(0, 0%, 17.8%)" stroke-width="1.5"></path><path d="M1092.7 796.64L1281.92 832.99" stroke="hsl(0, 0%, 17.8%)" stroke-width="1.5"></path><path d="M1092.7 796.64L970.31 647.24" stroke="hsl(0, 0%, 17.8%)" stroke-width="1.5"></path><path d="M1249.82 -64.27L1249.82 -64.27" stroke="hsl(0, 0%, 17.8%)" stroke-width="1.5"></path><path d="M1249.82 -64.27L1438.49 -111.99" stroke="hsl(0, 0%, 17.8%)" stroke-width="1.5"></path><path d="M1249.82 -64.27L1434.43 38.8" stroke="hsl(0, 0%, 17.8%)" stroke-width="1.5"></path><path d="M1249.82 -64.27L1243.45 194.47" stroke="hsl(0, 0%, 17.8%)" stroke-width="1.5"></path><path d="M1249.82 -64.27L1430.82 191.72" stroke="hsl(0, 0%, 17.8%)" stroke-width="1.5"></path><path d="M1249.82 -64.27L1127.98 247.3" stroke="hsl(0, 0%, 17.8%)" stroke-width="1.5"></path><path d="M1243.45 194.47L1243.45 194.47" stroke="hsl(0, 0%, 17.8%)" stroke-width="1.5"></path><path d="M1253.02 561.54L1253.02 561.54" stroke="hsl(0, 0%, 17.8%)" stroke-width="1.5"></path><path d="M1253.02 561.54L1311.41 671.95" stroke="hsl(0, 0%, 17.8%)" stroke-width="1.5"></path><path d="M1253.02 561.54L1411.52 507.57" stroke="hsl(0, 0%, 17.8%)" stroke-width="1.5"></path><path d="M1253.02 561.54L1428.33 669.82" stroke="hsl(0, 0%, 17.8%)" stroke-width="1.5"></path><path d="M1311.41 671.95L1311.41 671.95" stroke="hsl(0, 0%, 17.8%)" stroke-width="1.5"></path><path d="M1311.41 671.95L1428.33 669.82" stroke="hsl(0, 0%, 17.8%)" stroke-width="1.5"></path><path d="M1311.41 671.95L1281.92 832.99" stroke="hsl(0, 0%, 17.8%)" stroke-width="1.5"></path><path d="M1311.41 671.95L1144.77 672.65" stroke="hsl(0, 0%, 17.8%)" stroke-width="1.5"></path><path d="M1311.41 671.95L1411.52 507.57" stroke="hsl(0, 0%, 17.8%)" stroke-width="1.5"></path><path d="M1281.92 832.99L1281.92 832.99" stroke="hsl(0, 0%, 17.8%)" stroke-width="1.5"></path><path d="M1281.92 832.99L1144.77 672.65" stroke="hsl(0, 0%, 17.8%)" stroke-width="1.5"></path><path d="M1281.92 832.99L1428.33 669.82" stroke="hsl(0, 0%, 17.8%)" stroke-width="1.5"></path><path d="M1281.92 832.99L1253.02 561.54" stroke="hsl(0, 0%, 17.8%)" stroke-width="1.5"></path><path d="M1438.49 -111.99L1438.49 -111.99" stroke="hsl(0, 0%, 17.8%)" stroke-width="1.5"></path><path d="M1438.49 -111.99L1434.43 38.8" stroke="hsl(0, 0%, 17.8%)" stroke-width="1.5"></path><path d="M1438.49 -111.99L1604.29 -56.23" stroke="hsl(0, 0%, 17.8%)" stroke-width="1.5"></path><path d="M1434.43 38.8L1434.43 38.8" stroke="hsl(0, 0%, 17.8%)" stroke-width="1.5"></path><path d="M1434.43 38.8L1599.07 108.53" stroke="hsl(0, 0%, 17.8%)" stroke-width="1.5"></path><path d="M1434.43 38.8L1604.29 -56.23" stroke="hsl(0, 0%, 17.8%)" stroke-width="1.5"></path><path d="M1391.81 355.55L1391.81 355.55" stroke="hsl(0, 0%, 17.8%)" stroke-width="1.5"></path><path d="M1391.81 355.55L1411.52 507.57" stroke="hsl(0, 0%, 17.8%)" stroke-width="1.5"></path><path d="M1391.81 355.55L1556.62 363.3" stroke="hsl(0, 0%, 17.8%)" stroke-width="1.5"></path><path d="M1391.81 355.55L1243.45 194.47" stroke="hsl(0, 0%, 17.8%)" stroke-width="1.5"></path><path d="M1411.52 507.57L1411.52 507.57" stroke="hsl(0, 0%, 17.8%)" stroke-width="1.5"></path><path d="M1411.52 507.57L1428.33 669.82" stroke="hsl(0, 0%, 17.8%)" stroke-width="1.5"></path><path d="M1428.33 669.82L1428.33 669.82" stroke="hsl(0, 0%, 17.8%)" stroke-width="1.5"></path><path d="M1428.33 669.82L1561.27 652.04" stroke="hsl(0, 0%, 17.8%)" stroke-width="1.5"></path><path d="M1604.29 -56.23L1604.29 -56.23" stroke="hsl(0, 0%, 17.8%)" stroke-width="1.5"></path><path d="M1604.29 -56.23L1599.07 108.53" stroke="hsl(0, 0%, 17.8%)" stroke-width="1.5"></path><path d="M1604.29 -56.23L1573.79 228.05" stroke="hsl(0, 0%, 17.8%)" stroke-width="1.5"></path><path d="M1604.29 -56.23L1430.82 191.72" stroke="hsl(0, 0%, 17.8%)" stroke-width="1.5"></path><path d="M1604.29 -56.23L1249.82 -64.27" stroke="hsl(0, 0%, 17.8%)" stroke-width="1.5"></path><path d="M1599.07 108.53L1599.07 108.53" stroke="hsl(0, 0%, 17.8%)" stroke-width="1.5"></path><path d="M1599.07 108.53L1573.79 228.05" stroke="hsl(0, 0%, 17.8%)" stroke-width="1.5"></path><path d="M1573.79 228.05L1573.79 228.05" stroke="hsl(0, 0%, 17.8%)" stroke-width="1.5"></path><path d="M1573.79 228.05L1556.62 363.3" stroke="hsl(0, 0%, 17.8%)" stroke-width="1.5"></path><path d="M1556.62 363.3L1556.62 363.3" stroke="hsl(0, 0%, 17.8%)" stroke-width="1.5"></path><path d="M1556.62 363.3L1600.36 510.66" stroke="hsl(0, 0%, 17.8%)" stroke-width="1.5"></path><path d="M1600.36 510.66L1600.36 510.66" stroke="hsl(0, 0%, 17.8%)" stroke-width="1.5"></path><path d="M1600.36 510.66L1561.27 652.04" stroke="hsl(0, 0%, 17.8%)" stroke-width="1.5"></path><path d="M1600.36 510.66L1411.52 507.57" stroke="hsl(0, 0%, 17.8%)" stroke-width="1.5"></path><path d="M1600.36 510.66L1428.33 669.82" stroke="hsl(0, 0%, 17.8%)" stroke-width="1.5"></path><path d="M1600.36 510.66L1391.81 355.55" stroke="hsl(0, 0%, 17.8%)" stroke-width="1.5"></path><path d="M1561.27 652.04L1561.27 652.04" stroke="hsl(0, 0%, 17.8%)" stroke-width="1.5"></path><path d="M1561.27 652.04L1411.52 507.57" stroke="hsl(0, 0%, 17.8%)" stroke-width="1.5"></path><circle r="25" cx="-100.14" cy="847.56" fill="url(#SvgjsRadialGradient1052)"></circle><circle r="25" cx="371.99" cy="712.37" fill="url(#SvgjsRadialGradient1052)"></circle><circle r="25" cx="536.14" cy="524.71" fill="url(#SvgjsRadialGradient1052)"></circle><circle r="25" cx="548.21" cy="649.8" fill="url(#SvgjsRadialGradient1052)"></circle><circle r="25" cx="1253.73" cy="66.43" fill="url(#SvgjsRadialGradient1052)"></circle><circle r="25" cx="1281.5" cy="391.18" fill="url(#SvgjsRadialGradient1052)"></circle><circle r="25" cx="1430.82" cy="191.72" fill="url(#SvgjsRadialGradient1052)"></circle><circle r="25" cx="1433.32" cy="845.33" fill="url(#SvgjsRadialGradient1052)"></circle><circle r="5" cx="-51.32" cy="701.56" fill="#919191"></circle><circle r="5" cx="44.35" cy="704.06" fill="#919191"></circle><circle r="5" cx="71.32" cy="838.88" fill="#919191"></circle><circle r="5" cx="198.94" cy="805.4" fill="#919191"></circle><circle r="5" cx="363.59" cy="841.08" fill="#919191"></circle><circle r="5" cx="550.29" cy="791.3" fill="#919191"></circle><circle r="5" cx="693.72" cy="556.51" fill="#919191"></circle><circle r="5" cx="653.38" cy="682.62" fill="#919191"></circle><circle r="5" cx="685.09" cy="829.16" fill="#919191"></circle><circle r="5" cx="815.96" cy="507.36" fill="#919191"></circle><circle r="5" cx="861.31" cy="640.58" fill="#919191"></circle><circle r="5" cx="836.74" cy="828.04" fill="#919191"></circle><circle r="5" cx="994.45" cy="357.99" fill="#919191"></circle><circle r="5" cx="953.51" cy="561.02" fill="#919191"></circle><circle r="5" cx="970.31" cy="647.24" fill="#919191"></circle><circle r="5" cx="952.45" cy="799.71" fill="#919191"></circle><circle r="5" cx="1127.98" cy="247.3" fill="#919191"></circle><circle r="5" cx="1118.12" cy="399.74" fill="#919191"></circle><circle r="5" cx="1124.36" cy="556.03" fill="#919191"></circle><circle r="5" cx="1144.77" cy="672.65" fill="#919191"></circle><circle r="5" cx="1092.7" cy="796.64" fill="#919191"></circle><circle r="5" cx="1249.82" cy="-64.27" fill="#919191"></circle><circle r="5" cx="1243.45" cy="194.47" fill="#919191"></circle><circle r="5" cx="1253.02" cy="561.54" fill="#919191"></circle><circle r="5" cx="1311.41" cy="671.95" fill="#919191"></circle><circle r="5" cx="1281.92" cy="832.99" fill="#919191"></circle><circle r="5" cx="1438.49" cy="-111.99" fill="#919191"></circle><circle r="5" cx="1434.43" cy="38.8" fill="#919191"></circle><circle r="5" cx="1391.81" cy="355.55" fill="#919191"></circle><circle r="5" cx="1411.52" cy="507.57" fill="#919191"></circle><circle r="5" cx="1428.33" cy="669.82" fill="#919191"></circle><circle r="5" cx="1604.29" cy="-56.23" fill="#919191"></circle><circle r="5" cx="1599.07" cy="108.53" fill="#919191"></circle><circle r="5" cx="1573.79" cy="228.05" fill="#919191"></circle><circle r="5" cx="1556.62" cy="363.3" fill="#919191"></circle><circle r="5" cx="1600.36" cy="510.66" fill="#919191"></circle><circle r="5" cx="1561.27" cy="652.04" fill="#919191"></circle></g><defs><mask id="SvgjsMask1051"><rect width="1440" height="720" fill="#ffffff"></rect></mask><radialGradient id="SvgjsRadialGradient1052"><stop stop-color="#ffffff" offset="0.1"></stop><stop stop-color="rgba(35, 35, 35, 1)" offset="0.2"></stop><stop stop-color="rgba(35, 35, 35, 0)" offset="1"></stop></radialGradient></defs></svg>